<svg width="60" height="60" viewBox="0 0 60 60" fill="none" xmlns="http://www.w3.org/2000/svg">
<rect width="60" height="60" rx="30" fill="white"/>
<path d="M18.8298 39.8047H19.9507C19.9098 40.1075 19.8852 40.5084 19.8852 41.0484C19.8852 41.7602 19.9507 42.742 20.0407 43.2411C20.1798 44.092 20.4416 44.6156 20.7034 44.6156C20.8261 44.6156 20.9407 44.4929 21.0389 44.2638C21.2352 43.822 21.3825 43.3311 21.4725 42.7829C21.7589 43.1102 21.8898 43.2329 22.2907 43.5275C21.8652 45.1229 21.3907 45.7856 20.6952 45.7856C20.1471 45.7856 19.7052 45.3847 19.378 44.5993C19.0425 43.7811 18.8952 42.5947 18.8625 40.3284C18.8543 40.042 18.8543 39.9847 18.8298 39.8047ZM22.9616 40.582L23.8207 40.1729C24.8516 41.4084 25.4243 42.7747 25.6616 44.5747L24.6471 44.9593C24.598 44.1902 24.4098 43.3393 24.1234 42.5947C23.8452 41.8502 23.4525 41.1875 22.9616 40.582ZM27.0116 39.8047H28.1325C28.0916 40.1075 28.0671 40.5084 28.0671 41.0484C28.0671 41.7602 28.1325 42.742 28.2225 43.2411C28.3616 44.092 28.6234 44.6156 28.8852 44.6156C29.008 44.6156 29.1225 44.4929 29.2207 44.2638C29.4171 43.822 29.5643 43.3311 29.6543 42.7829C29.9407 43.1102 30.0716 43.2329 30.4725 43.5275C30.0471 45.1229 29.5725 45.7856 28.8771 45.7856C28.3289 45.7856 27.8871 45.3847 27.5598 44.5993C27.2243 43.7811 27.0771 42.5947 27.0443 40.3284C27.0361 40.042 27.0361 39.9847 27.0116 39.8047ZM31.1434 40.582L32.0025 40.1729C33.0334 41.4084 33.6061 42.7747 33.8434 44.5747L32.8289 44.9593C32.7798 44.1902 32.5916 43.3393 32.3052 42.5947C32.0271 41.8502 31.6343 41.1875 31.1434 40.582ZM34.8825 41.482L34.8334 40.5656C34.9643 40.5738 35.0216 40.5738 35.087 40.5738C35.2834 40.5738 35.7334 40.5493 36.1425 40.5165C36.1589 40.0338 36.1589 39.9029 36.1589 39.5429C36.1589 39.3302 36.1589 39.2729 36.1507 39.0847L37.1816 39.1011C37.1325 39.3302 37.1325 39.3302 37.0834 40.4347C37.1407 40.4265 37.157 40.4184 37.2061 40.402L37.5089 40.7538C37.4189 40.8193 37.4025 40.8438 37.0507 41.2447L37.0261 41.8175C37.288 41.5638 37.468 41.4084 37.7461 41.212C38.6298 40.5738 39.1125 40.3693 39.7343 40.3693C40.9289 40.3693 41.5998 41.3511 41.5998 43.1102C41.5998 43.5684 41.567 43.8875 41.4934 44.2884C41.6161 44.3702 41.6734 44.4193 42.0334 44.6893C42.0989 44.7384 42.0989 44.7384 42.1889 44.8202C42.2216 44.8447 42.2298 44.8529 42.287 44.8938L41.9025 45.8756C41.7225 45.6629 41.5343 45.4829 41.1661 45.1965C41.0598 45.4256 40.9698 45.5402 40.7898 45.6875C40.4789 45.9329 40.0043 46.0884 39.5216 46.0884C38.5807 46.0884 37.9425 45.5811 37.9425 44.8284C37.9425 44.0838 38.5643 43.5765 39.4643 43.5765C39.8489 43.5765 40.1761 43.6502 40.5852 43.822C40.6343 43.5684 40.6507 43.3965 40.6507 43.1265C40.6507 41.9156 40.3071 41.3184 39.6116 41.3184C39.2352 41.3184 38.8425 41.482 38.2861 41.8747C37.877 42.1693 37.4843 42.4965 37.0343 42.9384C37.0343 45.3438 37.0425 45.802 37.0998 46.2602H36.028C36.0689 45.9575 36.0689 45.9575 36.077 44.0184C36.0852 43.8956 36.0852 43.8465 36.0934 43.7156C36.0116 43.822 35.848 44.0184 35.6598 44.2229C35.2752 44.6484 35.2098 44.7302 35.0789 44.8938L34.588 43.9365C34.7761 43.822 34.9889 43.6256 36.0934 42.5375C36.0934 42.0302 36.0934 42.0302 36.118 41.3593C35.128 41.4329 35.128 41.4329 34.8825 41.482ZM40.4052 44.6811C40.0452 44.4602 39.808 44.3784 39.4889 44.3784C39.1043 44.3784 38.8343 44.5747 38.8343 44.8529C38.8343 45.0984 39.1207 45.2784 39.5052 45.2784C39.6852 45.2784 39.8816 45.2293 40.0289 45.1475C40.168 45.0656 40.2825 44.9429 40.3561 44.7875C40.3889 44.7302 40.4052 44.6893 40.4052 44.6811Z" fill="#FF4343"/>
<path d="M30.6816 36.8184L28.8032 35.0527C22.1316 28.806 17.7271 24.6728 17.7271 19.6299C17.7271 15.4966 20.8621 12.2729 24.8521 12.2729C27.1061 12.2729 29.2696 13.3564 30.6816 15.0552C32.0936 13.3564 34.2571 12.2729 36.5111 12.2729C40.5011 12.2729 43.6361 15.4966 43.6361 19.6299C43.6361 24.6728 39.2316 28.806 32.56 35.0527L30.6816 36.8184Z" fill="#FF4343"/>
</svg>
