<svg width="13" height="13" viewBox="0 0 13 13" fill="none" xmlns="http://www.w3.org/2000/svg">
<path d="M5.48889 9.53333L10.5806 4.44167L9.56944 3.43056L5.48889 7.51111L3.43056 5.45278L2.41945 6.46389L5.48889 9.53333ZM1.44445 13C1.04722 13 0.707057 12.8584 0.423945 12.5753C0.140834 12.2922 -0.000480255 11.9523 1.22618e-06 11.5556V1.44445C1.22618e-06 1.04722 0.141557 0.707057 0.424668 0.423945C0.707779 0.140834 1.0477 -0.000480255 1.44445 1.22618e-06H11.5556C11.9528 1.22618e-06 12.2929 0.141557 12.5761 0.424668C12.8592 0.707779 13.0005 1.0477 13 1.44445V11.5556C13 11.9528 12.8584 12.2929 12.5753 12.5761C12.2922 12.8592 11.9523 13.0005 11.5556 13H1.44445Z" fill="url(#paint0_linear_1758_15500)"/>
<defs>
<linearGradient id="paint0_linear_1758_15500" x1="0.5" y1="7" x2="13" y2="7" gradientUnits="userSpaceOnUse">
<stop stop-color="#4770FF"/>
<stop offset="1" stop-color="#4185FF"/>
</linearGradient>
</defs>
</svg>
